#define ac_charging_width 16
#define ac_charging_height 16

static unsigned char ac_charging_bits[] = {
  0x00, 0x00, 0x00, 0x00, 0x00, 0x00, 0x00, 0x00, 0x00, 0x00, 0x80, 0x03, 
  0xc0, 0x0f, 0xf0, 0x03, 0xf0, 0x03, 0xc0, 0x0f, 0x80, 0x03, 0x00, 0x00, 
  0x00, 0x00, 0x00, 0x00, 0x00, 0x00, 0x00, 0x00 };
