#define ac_charged_width 16
#define ac_charged_height 16

static unsigned char ac_charged_bits[] = {
  0x00, 0x00, 0x00, 0x00, 0x00, 0x00, 0x00, 0x00, 0x00, 0x18, 0xc0, 0x18, 
  0xe0, 0x1b, 0xf8, 0x18, 0xf8, 0x18, 0xe0, 0x03, 0xc0, 0x18, 0x00, 0x18, 
  0x00, 0x00, 0x00, 0x00, 0x00, 0x00, 0x00, 0x00 };
