#define crypto_eth_width 8
#define crypto_eth_height 8
static unsigned char crypto_eth_bits[] = {
   0x08, 0x1c, 0x3e, 0x1c, 0x2a, 0x36, 0x1c, 0x08 };
