#define date_width 16
#define date_height 16

static unsigned char date_bits[] = {
  0x00, 0x00, 0x00, 0x00, 0x00, 0x00, 0x40, 0x04, 0xe0, 0x0f, 0xe0, 0x0f, 
  0x20, 0x08, 0xa0, 0x0a, 0x20, 0x08, 0xa0, 0x0a, 0x20, 0x08, 0xe0, 0x0f, 
  0x00, 0x00, 0x00, 0x00, 0x00, 0x00, 0x00, 0x00 };
