#define euro_width 8
#define euro_height 8
static unsigned char euro_bits[] = {
   0x78, 0x0c, 0x04, 0x3e, 0x3e, 0x04, 0x0c, 0x78 };
