#define load_width 16
#define load_height 16

static unsigned char load_bits[] = {
  0x00, 0x00, 0x00, 0x00, 0x00, 0x00, 0xe0, 0x0f, 0x70, 0x1f, 0x70, 0x1f, 
  0x70, 0x1f, 0x90, 0x12, 0xf0, 0x1d, 0xf0, 0x1d, 0xf0, 0x1d, 0xe0, 0x0f, 
  0x00, 0x00, 0x00, 0x00, 0x00, 0x00, 0x00, 0x00 };
