#define bluetooth_width 16
#define bluetooth_height 16

static unsigned char bluetooth_bits[] = {
  0x00, 0x00, 0x00, 0x00, 0x00, 0x00, 0x00, 0x03, 0x00, 0x05, 0x20, 0x09, 
  0x40, 0x05, 0x80, 0x03, 0x40, 0x05, 0x20, 0x09, 0x00, 0x05, 0x00, 0x03, 
  0x00, 0x00, 0x00, 0x00, 0x00, 0x00, 0x00, 0x00 };
