#define mem_width 16
#define mem_height 16

static unsigned char mem_bits[] = {
  0x00, 0x00, 0x00, 0x00, 0x00, 0x00, 0x00, 0x00, 0xa0, 0x0a, 0x00, 0x00, 
  0xe0, 0x0f, 0xe0, 0x0f, 0xe0, 0x0f, 0xe0, 0x0f, 0x00, 0x00, 0xa0, 0x0a, 
  0x00, 0x00, 0x00, 0x00, 0x00, 0x00, 0x00, 0x00 };
