#define pacman_width 16
#define pacman_height 16

static unsigned char pacman_bits[] = {
  0x00, 0x00, 0x00, 0x00, 0x00, 0x00, 0x00, 0x00, 0xc0, 0x03, 0xe0, 0x06, 
  0x70, 0x0e, 0xf0, 0x0f, 0x70, 0x00, 0xf0, 0x01, 0xe0, 0x07, 0xc0, 0x03, 
  0x00, 0x00, 0x00, 0x00, 0x00, 0x00, 0x00, 0x00 };
